<svg xmlns="http://www.w3.org/2000/svg" width="24" height="24" fill="none" viewBox="0 0 24 24"><path fill="#000" d="M9 15.75a2.25 2.25 0 0 1 2.118 1.5h9.132a.75.75 0 0 1 0 1.5h-9.132c-.11.313-.288.602-.527.84a2.25 2.25 0 0 1-3.182 0 2.25 2.25 0 0 1-.527-.84H3.75a.75.75 0 0 1 0-1.5h3.132c.11-.313.288-.602.527-.84A2.25 2.25 0 0 1 9 15.75m0 1.5a.75.75 0 1 0 .75.75l-.015-.148A.75.75 0 0 0 9 17.25m6.223-7.49a2.25 2.25 0 0 1 1.895 1.49h3.132a.75.75 0 0 1 0 1.5h-3.132a2.25 2.25 0 0 1-1.895 1.49l-.223.01a2.25 2.25 0 0 1-2.118-1.5H3.75a.75.75 0 0 1 0-1.5h9.132c.11-.313.288-.601.527-.84A2.25 2.25 0 0 1 15 9.75zm-.37 1.505a.75.75 0 0 0-.603.735l.015.148a.75.75 0 0 0 .735.602l.148-.015A.751.751 0 0 0 15 11.25zM9 3.75a2.25 2.25 0 0 1 2.118 1.5h9.132a.75.75 0 0 1 0 1.5h-9.132c-.11.313-.288.602-.527.84a2.25 2.25 0 0 1-3.182 0 2.25 2.25 0 0 1-.527-.84H3.75a.75.75 0 0 1 0-1.5h3.132c.11-.313.288-.602.527-.84A2.25 2.25 0 0 1 9 3.75m0 1.5a.75.75 0 1 0 .75.75l-.015-.147A.75.75 0 0 0 9 5.25"/></svg>