<svg xmlns="http://www.w3.org/2000/svg" width="24" height="24" fill="none" viewBox="0 0 24 24"><path fill="#000" d="M21 4.875a.375.375 0 0 0-.375-.375H3.375A.375.375 0 0 0 3 4.875v1.5c0 .207.168.375.375.375h17.25A.375.375 0 0 0 21 6.375zM5.124 18.088A1.5 1.5 0 0 0 6.622 19.5h10.756a1.5 1.5 0 0 0 1.498-1.412l.578-9.838H4.546zM11.25 10.5a.75.75 0 0 1 1.5 0v4.94l1.72-1.72a.75.75 0 1 1 1.06 1.06l-3 3a.75.75 0 0 1-1.06 0l-3-3-.052-.056a.75.75 0 0 1 1.056-1.056l.056.052 1.72 1.72zM22.5 6.375c0 .921-.665 1.685-1.541 1.843l-.585 9.958a3 3 0 0 1-2.71 2.81l-.286.014H6.622a3 3 0 0 1-2.996-2.824L3.04 8.218A1.874 1.874 0 0 1 1.5 6.375v-1.5C1.5 3.84 2.34 3 3.375 3h17.25c1.035 0 1.875.84 1.875 1.875z"/></svg>