<svg viewBox="0 0 24 24" xmlns="http://www.w3.org/2000/svg"><path d="M20.1598 4.07425H18.328V2.79675C18.328 2.3575 17.9705 2 17.5315 2H9.9195V9.275L8.08025 7.4355L6.24075 9.275V2H5.3355C4.0475 2 3 3.04775 3 4.33525V19.6648C3 19.6705 3 19.6765 3.00025 19.6825C3.00475 20.2993 3.247 20.8785 3.68425 21.3163C4.1255 21.757 4.71175 22 5.3355 22H20.1595L20.1598 4.07425ZM19.3468 21.1873H5.3355C4.92875 21.1873 4.54625 21.0287 4.259 20.7415C3.97025 20.4525 3.812 20.0685 3.813 19.6602C3.8155 18.8235 4.51125 18.1428 5.364 18.1428H18.328V4.887H19.3468V21.1873Z"/><path d="M18.3281 19.1998H5.2389V20.0126H18.3281V19.1998Z"/></svg>