<svg viewBox="0 0 24 24" xmlns="http://www.w3.org/2000/svg"><path fill-rule="evenodd" clip-rule="evenodd" d="M11.9996 19C11.9996 19 18.2537 18.9999 19.8135 18.5819C20.6203 18.3663 21.2665 17.7573 21.5336 16.973L21.5821 16.8139C21.9988 15.2589 22 12.0191 22 12C22 12 22 8.74593 21.5821 7.18606C21.3521 6.32557 20.6741 5.64822 19.8135 5.41807C18.2539 5.00028 11.9996 5 11.9996 5C11.9596 5 5.7404 5.00162 4.18577 5.41807C3.32542 5.64839 2.64773 6.32563 2.41789 7.18606C2.00002 8.7459 2 12 2 12C2 12 2.00008 15.2545 2.41789 16.8139C2.64776 17.6744 3.32589 18.3519 4.18649 18.5819C5.7406 18.9982 11.9517 19 11.9996 19ZM9.9551 9.04616L15.182 12.0007L9.9551 14.9553V9.04616Z"/></svg>