<svg width="24" height="24" viewBox="0 0 24 24" fill="none" xmlns="http://www.w3.org/2000/svg">
<path d="M9 15.75C9.59674 15.75 10.1689 15.9872 10.5908 16.4092C10.8301 16.6485 11.0073 16.937 11.1182 17.25H20.25C20.6642 17.25 21 17.5858 21 18C21 18.4142 20.6642 18.75 20.25 18.75H11.1182C11.0073 19.063 10.8301 19.3515 10.5908 19.5908C10.1689 20.0128 9.59674 20.25 9 20.25C8.40326 20.25 7.83114 20.0128 7.40918 19.5908C7.16988 19.3515 6.99268 19.063 6.88184 18.75H3.75C3.33579 18.75 3 18.4142 3 18C3 17.5858 3.33579 17.25 3.75 17.25H6.88184C6.99268 16.937 7.16988 16.6485 7.40918 16.4092C7.83114 15.9872 8.40326 15.75 9 15.75ZM9 17.25C8.80109 17.25 8.61038 17.3291 8.46973 17.4697C8.32907 17.6104 8.25 17.8011 8.25 18C8.25 18.1989 8.32907 18.3896 8.46973 18.5303C8.61038 18.6709 8.80109 18.75 9 18.75C9.19891 18.75 9.38962 18.6709 9.53027 18.5303C9.67093 18.3896 9.75 18.1989 9.75 18L9.73535 17.8525C9.70648 17.7086 9.63565 17.5751 9.53027 17.4697C9.38962 17.3291 9.19891 17.25 9 17.25ZM15.2227 9.76074C15.7376 9.81193 16.2217 10.04 16.5908 10.4092C16.8301 10.6485 17.0073 10.937 17.1182 11.25H20.25C20.6642 11.25 21 11.5858 21 12C21 12.4142 20.6642 12.75 20.25 12.75H17.1182C17.0073 13.063 16.8301 13.3515 16.5908 13.5908C16.2217 13.96 15.7376 14.1881 15.2227 14.2393L15 14.25C14.4033 14.25 13.8311 14.0128 13.4092 13.5908C13.1699 13.3515 12.9927 13.063 12.8818 12.75H3.75C3.33579 12.75 3 12.4142 3 12C3 11.5858 3.33579 11.25 3.75 11.25H12.8818C12.9927 10.937 13.1699 10.6485 13.4092 10.4092C13.8311 9.98722 14.4033 9.75 15 9.75L15.2227 9.76074ZM14.8525 11.2646C14.7086 11.2935 14.5751 11.3644 14.4697 11.4697C14.3291 11.6104 14.25 11.8011 14.25 12L14.2646 12.1475C14.2935 12.2914 14.3644 12.4249 14.4697 12.5303C14.6104 12.6709 14.8011 12.75 15 12.75L15.1475 12.7354C15.2914 12.7065 15.4249 12.6356 15.5303 12.5303C15.6709 12.3896 15.75 12.1989 15.75 12C15.75 11.8011 15.6709 11.6104 15.5303 11.4697C15.3896 11.3291 15.1989 11.25 15 11.25L14.8525 11.2646ZM9 3.75C9.59674 3.75 10.1689 3.98722 10.5908 4.40918C10.8301 4.64848 11.0073 4.93696 11.1182 5.25H20.25C20.6642 5.25 21 5.58579 21 6C21 6.41421 20.6642 6.75 20.25 6.75H11.1182C11.0073 7.06304 10.8301 7.35152 10.5908 7.59082C10.1689 8.01278 9.59674 8.25 9 8.25C8.40326 8.25 7.83114 8.01278 7.40918 7.59082C7.16988 7.35152 6.99268 7.06304 6.88184 6.75H3.75C3.33579 6.75 3 6.41421 3 6C3 5.58579 3.33579 5.25 3.75 5.25H6.88184C6.99268 4.93696 7.16988 4.64848 7.40918 4.40918C7.83114 3.98722 8.40326 3.75 9 3.75ZM9 5.25C8.80109 5.25 8.61038 5.32907 8.46973 5.46973C8.32907 5.61038 8.25 5.80109 8.25 6C8.25 6.19891 8.32907 6.38962 8.46973 6.53027C8.61038 6.67093 8.80109 6.75 9 6.75C9.19891 6.75 9.38962 6.67093 9.53027 6.53027C9.67093 6.38962 9.75 6.19891 9.75 6L9.73535 5.85254C9.70648 5.70855 9.63565 5.5751 9.53027 5.46973C9.38962 5.32907 9.19891 5.25 9 5.25Z" fill="black"/>
</svg>
