<svg width="24" height="24" viewBox="0 0 24 24" fill="none" xmlns="http://www.w3.org/2000/svg">
<path d="M20.25 12C20.25 9.81196 19.3812 7.71319 17.834 6.16602C16.2868 4.61884 14.188 3.75 12 3.75C9.81196 3.75 7.71319 4.61884 6.16602 6.16602C4.61884 7.71319 3.75 9.81196 3.75 12C3.75 13.0834 3.96333 14.1563 4.37793 15.1572C4.79253 16.1581 5.39995 17.0679 6.16602 17.834C6.93209 18.6001 7.84186 19.2075 8.84277 19.6221C9.84371 20.0367 10.9166 20.25 12 20.25C13.0834 20.25 14.1563 20.0367 15.1572 19.6221C16.1581 19.2075 17.0679 18.6001 17.834 17.834C18.6001 17.0679 19.2075 16.1581 19.6221 15.1572C20.0367 14.1563 20.25 13.0834 20.25 12ZM10.7197 8.46973C11.0126 8.17683 11.4874 8.17683 11.7803 8.46973C12.0732 8.76262 12.0732 9.23738 11.7803 9.53027L10.0605 11.25H15.75C16.1642 11.25 16.5 11.5858 16.5 12C16.5 12.4142 16.1642 12.75 15.75 12.75H10.0605L11.7803 14.4697L11.832 14.5264C12.0723 14.8209 12.0549 15.2557 11.7803 15.5303C11.5057 15.8049 11.0709 15.8223 10.7764 15.582L10.7197 15.5303L7.71973 12.5303C7.42683 12.2374 7.42683 11.7626 7.71973 11.4697L10.7197 8.46973ZM21.75 12C21.75 13.2804 21.4978 14.5485 21.0078 15.7314C20.5178 16.9143 19.7998 17.9892 18.8945 18.8945C17.9892 19.7998 16.9143 20.5178 15.7314 21.0078C14.5485 21.4978 13.2804 21.75 12 21.75C10.7196 21.75 9.45148 21.4978 8.26855 21.0078C7.08573 20.5178 6.01078 19.7998 5.10547 18.8945C4.20016 17.9892 3.48217 16.9143 2.99219 15.7314C2.5022 14.5485 2.25 13.2804 2.25 12C2.25 9.41414 3.27699 6.93395 5.10547 5.10547C6.93395 3.27699 9.41414 2.25 12 2.25C14.5859 2.25 17.0661 3.27699 18.8945 5.10547C20.723 6.93395 21.75 9.41414 21.75 12Z" fill="black"/>
</svg>
