<svg width="24" height="24" viewBox="0 0 24 24" fill="none" xmlns="http://www.w3.org/2000/svg">
<path d="M20.5178 6.21428H18.4285V18.4285C18.4285 18.7695 18.564 19.0966 18.8051 19.3377C19.0462 19.5788 19.3733 19.7143 19.7143 19.7143C20.0552 19.7143 20.3823 19.5788 20.6234 19.3377C20.8645 19.0966 21 18.7695 21 18.4285V6.69642C21 6.56855 20.9492 6.44591 20.8588 6.3555C20.7683 6.26508 20.6457 6.21428 20.5178 6.21428Z" fill="#1C1615"/>
<path d="M19.0372 20.9096C18.4934 20.7604 18.0136 20.4369 17.6714 19.9887C17.3292 19.5405 17.1435 18.9924 17.1428 18.4285V3.48214C17.1428 3.35427 17.092 3.23164 17.0016 3.14122C16.9112 3.0508 16.7886 3 16.6607 3H3.48214C3.35427 3 3.23164 3.0508 3.14122 3.14122C3.0508 3.23164 3 3.35427 3 3.48214V18.75C3 19.3467 3.23705 19.919 3.65901 20.341C4.08096 20.7629 4.65326 21 5.25 21H19.0252C19.0366 21.0004 19.0477 20.9966 19.0565 20.9892C19.0652 20.9819 19.0708 20.9716 19.0724 20.9603C19.0739 20.9489 19.0711 20.9375 19.0646 20.9281C19.0581 20.9187 19.0484 20.9121 19.0372 20.9096ZM5.57142 10.0714V6.21428H9.42856V10.0714H5.57142ZM14.5714 17.7857H5.57142V16.5H14.5714V17.7857ZM14.5714 15.2143H5.57142V13.9286H14.5714V15.2143ZM14.5714 12.6428H5.57142V11.3571H14.5714V12.6428ZM14.5714 10.0714H10.7143V8.7857H14.5714V10.0714ZM14.5714 7.49999H10.7143V6.21428H14.5714V7.49999Z" fill="#1C1615"/>
</svg>
