<svg width="24" height="24" viewBox="0 0 24 24" fill="none" xmlns="http://www.w3.org/2000/svg">
<path d="M21 4.875C21 4.66821 20.8318 4.5 20.625 4.5H3.375C3.16821 4.5 3 4.66821 3 4.875V6.375C3 6.58179 3.16821 6.75 3.375 6.75H20.625C20.8318 6.75 21 6.58179 21 6.375V4.875ZM5.12402 18.0879C5.14647 18.4699 5.31338 18.8293 5.5918 19.0918C5.87028 19.3543 6.23938 19.5001 6.62207 19.5H17.3779C17.7606 19.5001 18.1297 19.3543 18.4082 19.0918C18.6866 18.8293 18.8535 18.4699 18.876 18.0879L19.4541 8.25H4.5459L5.12402 18.0879ZM11.25 10.5C11.25 10.0858 11.5858 9.75 12 9.75C12.4142 9.75 12.75 10.0858 12.75 10.5V15.4395L14.4697 13.7197C14.7626 13.4268 15.2374 13.4268 15.5303 13.7197C15.8232 14.0126 15.8232 14.4874 15.5303 14.7803L12.5303 17.7803C12.2374 18.0732 11.7626 18.0732 11.4697 17.7803L8.46973 14.7803L8.41797 14.7236C8.17766 14.4291 8.19512 13.9943 8.46973 13.7197C8.74433 13.4451 9.17905 13.4277 9.47363 13.668L9.53027 13.7197L11.25 15.4395V10.5ZM22.5 6.375C22.5 7.29607 21.8347 8.05998 20.959 8.21777L20.374 18.1758C20.3291 18.9398 19.9934 19.6576 19.4365 20.1826C18.9492 20.642 18.3244 20.9234 17.6631 20.9863L17.3779 21H6.62207C5.85677 21.0002 5.12038 20.7076 4.56348 20.1826C4.00662 19.6576 3.67087 18.9398 3.62598 18.1758L3.04004 8.21777C2.16475 8.05959 1.5 7.29574 1.5 6.375V4.875C1.5 3.83979 2.33979 3 3.375 3H20.625C21.6602 3 22.5 3.83979 22.5 4.875V6.375Z" fill="black"/>
</svg>
