<svg width="24" height="24" viewBox="0 0 24 24" fill="none" xmlns="http://www.w3.org/2000/svg">
<path d="M5.30488 10.2734C5.82816 9.93862 6.50717 9.71127 7.25025 9.6192C7.47106 8.31004 8.05443 7.19107 8.95258 6.36272C9.90518 5.48382 11.1649 5 12.5 5C13.6737 5 14.7578 5.37098 15.6334 6.07143C16.2978 6.6051 16.8155 7.30159 17.1371 8.09442C18.1555 8.23906 19.0297 8.58359 19.6842 9.09888C20.5451 9.78225 21 10.7442 21 11.8839C21 14.1406 19.1433 15.7143 16.4844 15.7143H13.0313V10.8929H11.9687V15.7143H7.85156C5.43969 15.7143 4 14.5679 4 12.6473C4 11.6412 4.45123 10.8202 5.30488 10.2734ZM13.0313 17.9717L14.6257 16.3504L15.3764 17.1205L12.5 20L9.62361 17.1205L10.3743 16.3504L11.9687 17.9717V15.7143H13.0313V17.9717Z" fill="#1C1615"/>
</svg>
