<svg width="24" height="24" viewBox="0 0 24 24" fill="none" xmlns="http://www.w3.org/2000/svg">
<path d="M20.8958 2.00008H3.10416C2.49416 2.00008 2 2.00008 2 2.00008V22C2 22 2.49416 22 3.10416 22H12.6833V14.255H10.0766V11.2367H12.6833V9.01088C12.6833 6.42756 14.2608 5.0209 16.5658 5.0209C17.6699 5.0209 18.6183 5.1034 18.8949 5.14007V7.84005L17.2966 7.84089C16.0433 7.84089 15.8008 8.43672 15.8008 9.31005V11.2375H18.7899L18.4008 14.2559H15.8008V22H20.8974C21.5058 22 21.9999 22 21.9999 22V2C21.9999 2 21.5058 2.00008 20.8958 2.00008Z" fill="#1C1615"/>
</svg>
