<svg width="24" height="24" viewBox="0 0 24 24" fill="none" xmlns="http://www.w3.org/2000/svg">
<path d="M20.55 6.4H16.8V4.3C16.8 4.22044 16.7684 4.14413 16.7121 4.08787C16.6559 4.03161 16.5796 4 16.5 4H7.5C7.42044 4 7.34413 4.03161 7.28787 4.08787C7.23161 4.14413 7.2 4.22044 7.2 4.3V6.4H3.45C3.33065 6.4 3.21619 6.44741 3.1318 6.5318C3.04741 6.61619 3 6.73065 3 6.85V20.35C3 20.4693 3.04741 20.5838 3.1318 20.6682C3.21619 20.7526 3.33065 20.8 3.45 20.8H20.55C20.6693 20.8 20.7838 20.7526 20.8682 20.6682C20.9526 20.5838 21 20.4693 21 20.35V6.85C21 6.73065 20.9526 6.61619 20.8682 6.5318C20.7838 6.44741 20.6693 6.4 20.55 6.4ZM8.7 5.5H15.3V6.4H8.7V5.5ZM15.6 14.425H12.825V17.2H11.175V14.425H8.4V12.775H11.175V10H12.825V12.775H15.6V14.425Z" fill="#1C1615"/>
</svg>
