<svg width="24" height="24" viewBox="0 0 24 24" fill="none" xmlns="http://www.w3.org/2000/svg">
<path d="M20.8776 16.5253C20.6688 16.3029 19.9316 15.6453 18.5764 14.7753C17.2112 13.8977 16.2044 13.3505 15.9156 13.2229C15.8901 13.2117 15.8621 13.2075 15.8344 13.211C15.8068 13.2144 15.7807 13.2253 15.7588 13.2425C15.2936 13.6053 14.5104 14.2717 14.4684 14.3077C14.1972 14.5401 14.1972 14.5401 13.9752 14.4677C13.5848 14.3397 12.372 13.6957 11.3152 12.6365C10.2584 11.5773 9.58117 10.3345 9.45317 9.94454C9.37997 9.72214 9.37997 9.72214 9.61317 9.45094C9.64917 9.40894 10.316 8.62574 10.6788 8.16094C10.696 8.13905 10.7069 8.11289 10.7103 8.08526C10.7138 8.05764 10.7097 8.02959 10.6984 8.00414C10.5708 7.71494 10.0236 6.70854 9.14597 5.34334C8.27477 3.98854 7.61797 3.25134 7.39557 3.04254C7.37516 3.02328 7.34994 3.00989 7.32255 3.00376C7.29517 2.99764 7.26664 2.99901 7.23997 3.00774C6.46256 3.2749 5.71248 3.61578 4.99997 4.02574C4.31214 4.42559 3.66095 4.88538 3.05397 5.39974C3.03278 5.41775 3.0169 5.4412 3.00802 5.46755C2.99914 5.49391 2.9976 5.52218 3.00357 5.54934C3.08717 5.93894 3.48677 7.56534 4.72677 9.81814C5.99197 12.1173 6.86877 13.2953 8.72677 15.1469C10.5848 16.9985 11.8 17.9281 14.1016 19.1933C16.3544 20.4333 17.9816 20.8333 18.3704 20.9161C18.3976 20.9221 18.4259 20.9205 18.4523 20.9116C18.4787 20.9027 18.5022 20.8869 18.5204 20.8657C19.0346 20.2588 19.4943 19.6076 19.894 18.9197C20.3039 18.2072 20.6447 17.4571 20.912 16.6797C20.9205 16.6533 20.9218 16.625 20.9158 16.5979C20.9097 16.5707 20.8965 16.5457 20.8776 16.5253Z" fill="#1C1615"/>
</svg>
