<svg width="24" height="24" viewBox="0 0 24 24" fill="none" xmlns="http://www.w3.org/2000/svg">
<path d="M18.6687 17.4859L14.5918 13.4083C15.2488 12.5054 15.6022 11.4172 15.6012 10.3006C15.6012 7.3779 13.2233 5 10.3006 5C7.3779 5 5 7.3779 5 10.3006C5 13.2233 7.3779 15.6012 10.3006 15.6012C11.4172 15.6022 12.5054 15.2488 13.4083 14.5918L17.4859 18.6687L18.6687 17.4859ZM10.3006 13.9271C9.58324 13.9271 8.88198 13.7145 8.28551 13.316C7.68903 12.9175 7.22412 12.3511 6.94957 11.6883C6.67503 11.0256 6.60318 10.2963 6.74311 9.59278C6.88304 8.88921 7.22847 8.24295 7.73571 7.73571C8.24295 7.22847 8.88921 6.88304 9.59278 6.74311C10.2963 6.60318 11.0256 6.67503 11.6883 6.94957C12.3511 7.22412 12.9175 7.68903 13.316 8.28551C13.7145 8.88198 13.9271 9.58324 13.9271 10.3006C13.9259 11.262 13.5435 12.1838 12.8637 12.8637C12.1838 13.5435 11.262 13.9259 10.3006 13.9271Z" fill="#1C1615"/>
</svg>
